<svg width="305" height="52" viewBox="0 0 305 52" fill="none" xmlns="http://www.w3.org/2000/svg">
<path d="M4.2879 6.312L0.495902 5.73601V3.33601H13.5519V5.73601L9.4239 6.312V19.224H26.3199V6.312L22.4319 5.73601V3.33601H35.2959V5.73601L31.5039 6.312V36.168L35.2959 36.648V39H22.3839V36.648L26.3199 36.168V22.2H9.4239V36.168L13.5999 36.648V39H0.399902V36.648L4.2879 36.168V6.312Z" fill="#101010"/>
<path d="M61.7499 39.432C60.8539 39.432 60.1819 39.256 59.7339 38.904C59.3179 38.552 59.1099 37.976 59.1099 37.176V35.544C58.0539 36.6 56.7259 37.528 55.1259 38.328C53.5579 39.128 51.9739 39.528 50.3739 39.528C47.3979 39.528 45.2859 38.728 44.0379 37.128C42.7899 35.528 42.1659 32.888 42.1659 29.208V15.288L39.4779 14.52V12.408L46.1979 11.784H46.2459L47.1579 12.36V28.824C47.1579 30.68 47.2859 32.136 47.5419 33.192C47.8299 34.216 48.3099 34.984 48.9819 35.496C49.6859 35.976 50.6939 36.216 52.0059 36.216C53.2859 36.216 54.4859 35.944 55.6059 35.4C56.7259 34.856 57.7019 34.216 58.5339 33.48V15.288L55.0779 14.52V12.408L62.3739 11.784H62.4219L63.5259 12.36V36.552H66.4059L66.3579 38.712C65.4619 38.936 64.6779 39.112 64.0059 39.24C63.3659 39.368 62.6139 39.432 61.7499 39.432Z" fill="#101010"/>
<path d="M81.71 51.96C77.614 51.96 74.638 51.304 72.782 49.992C70.958 48.712 70.046 46.936 70.046 44.664C70.046 43.256 70.478 41.96 71.342 40.776C72.238 39.592 73.294 38.696 74.51 38.088C73.038 37.256 72.302 35.912 72.302 34.056C72.302 32.904 72.638 31.816 73.31 30.792C73.982 29.768 74.862 28.984 75.95 28.44C74.35 27.736 73.118 26.728 72.254 25.416C71.422 24.104 71.006 22.552 71.006 20.76C71.006 18.904 71.518 17.288 72.542 15.912C73.598 14.536 74.974 13.48 76.67 12.744C78.398 12.008 80.222 11.64 82.142 11.64C85.374 11.64 87.902 12.312 89.726 13.656C90.206 13.176 90.942 12.712 91.934 12.264C92.926 11.816 93.982 11.592 95.102 11.592H96.734V15.816H91.454C92.222 17 92.606 18.376 92.606 19.944C92.606 21.832 92.126 23.512 91.166 24.984C90.238 26.424 88.926 27.544 87.23 28.344C85.566 29.144 83.678 29.544 81.566 29.544C80.19 29.544 78.958 29.4 77.87 29.112C77.422 29.56 77.054 30.056 76.766 30.6C76.478 31.144 76.334 31.672 76.334 32.184C76.334 33.336 76.718 34.136 77.486 34.584C78.254 35 79.63 35.208 81.614 35.208H87.038C90.142 35.208 92.446 35.8 93.95 36.984C95.454 38.168 96.206 39.848 96.206 42.024C96.206 43.848 95.55 45.512 94.238 47.016C92.926 48.552 91.15 49.752 88.91 50.616C86.702 51.512 84.302 51.96 81.71 51.96ZM82.046 26.904C85.694 26.904 87.518 24.744 87.518 20.424C87.518 18.28 87.038 16.712 86.078 15.72C85.15 14.696 83.742 14.184 81.854 14.184C80.094 14.184 78.702 14.68 77.678 15.672C76.654 16.632 76.142 18.184 76.142 20.328C76.142 22.344 76.622 23.944 77.582 25.128C78.574 26.312 80.062 26.904 82.046 26.904ZM82.142 49.176C83.71 49.176 85.182 48.936 86.558 48.456C87.966 48.008 89.102 47.32 89.966 46.392C90.83 45.496 91.262 44.44 91.262 43.224C91.262 41.784 90.878 40.728 90.11 40.056C89.342 39.416 87.854 39.096 85.646 39.096H79.982C78.702 39.096 77.694 39.016 76.958 38.856C75.646 40.296 74.99 41.912 74.99 43.704C74.99 45.496 75.534 46.856 76.622 47.784C77.71 48.712 79.55 49.176 82.142 49.176Z" fill="#101010"/>
<path d="M99.3943 25.608C99.3943 22.728 99.9863 20.232 101.17 18.12C102.354 16.008 103.906 14.408 105.826 13.32C107.778 12.2 109.858 11.64 112.066 11.64C116.098 11.64 119.122 12.92 121.138 15.48C123.186 18.04 124.21 21.4 124.21 25.56C124.21 28.472 123.618 30.984 122.434 33.096C121.25 35.208 119.682 36.808 117.73 37.896C115.81 38.984 113.746 39.528 111.538 39.528C107.506 39.528 104.466 38.248 102.418 35.688C100.402 33.128 99.3943 29.768 99.3943 25.608ZM111.826 36.792C114.034 36.792 115.73 35.88 116.914 34.056C118.098 32.232 118.69 29.528 118.69 25.944C118.69 22.392 118.146 19.576 117.058 17.496C115.97 15.416 114.226 14.376 111.826 14.376C109.618 14.376 107.906 15.288 106.69 17.112C105.506 18.936 104.914 21.64 104.914 25.224C104.914 28.776 105.474 31.592 106.594 33.672C107.714 35.752 109.458 36.792 111.826 36.792Z" fill="#101010"/>
<path d="M165.86 39C165.316 39 164.612 38.36 163.748 37.08C162.916 35.768 161.716 33.72 160.148 30.936C159.956 30.584 159.412 29.64 158.516 28.104C157.652 26.536 156.836 25.192 156.068 24.072C155.332 22.952 154.676 22.072 154.1 21.432L149.252 26.904V36.168L153.62 36.648V39H140.132V36.648L144.116 36.168V6.312L140.18 5.73601V3.33601H153.236V5.73601L149.252 6.312V23.112L163.364 6.312L159.332 5.73601V3.33601H171.188V5.73601L167.492 6.312L157.124 17.928C158.244 18.888 159.428 20.28 160.676 22.104C161.956 23.928 163.508 26.28 165.332 29.16C166.9 31.624 168.036 33.384 168.74 34.44C169.476 35.464 170.052 36.024 170.468 36.12L172.724 36.648V39H165.86Z" fill="#101010"/>
<path d="M177.696 16.056L174.24 15.192V12.6L181.104 11.736H181.248L182.256 12.6V14.616L182.208 15.768C183.36 14.744 184.88 13.816 186.768 12.984C188.656 12.152 190.464 11.736 192.192 11.736C194.208 11.736 195.76 12.12 196.848 12.888C197.968 13.656 198.752 14.84 199.2 16.44C199.648 18.008 199.872 20.136 199.872 22.824V36.264L203.232 36.6V39H191.856V36.648L194.832 36.264V22.776C194.832 20.888 194.704 19.416 194.448 18.36C194.192 17.272 193.712 16.472 193.008 15.96C192.304 15.416 191.28 15.144 189.936 15.144C188.784 15.144 187.552 15.432 186.24 16.008C184.928 16.584 183.76 17.256 182.736 18.024V36.216L186 36.648V39H174.672V36.648L177.696 36.216V16.056Z" fill="#101010"/>
<path d="M218.499 39.528C214.627 39.528 211.667 38.264 209.619 35.736C207.603 33.208 206.595 29.832 206.595 25.608C206.595 22.824 207.123 20.376 208.179 18.264C209.235 16.152 210.707 14.52 212.595 13.368C214.515 12.216 216.691 11.64 219.123 11.64C222.099 11.64 224.403 12.472 226.035 14.136C227.699 15.768 228.579 18.12 228.675 21.192C228.675 23.144 228.563 24.632 228.339 25.656H211.827C211.891 28.824 212.627 31.384 214.035 33.336C215.443 35.256 217.443 36.216 220.035 36.216C221.315 36.216 222.643 35.992 224.019 35.544C225.427 35.064 226.515 34.504 227.283 33.864L228.195 35.976C227.267 36.936 225.891 37.768 224.067 38.472C222.243 39.176 220.387 39.528 218.499 39.528ZM223.395 23.112C223.491 22.44 223.539 21.752 223.539 21.048C223.507 18.968 223.059 17.336 222.195 16.152C221.363 14.936 220.035 14.328 218.211 14.328C216.355 14.328 214.867 15 213.747 16.344C212.659 17.688 212.035 19.944 211.875 23.112H223.395Z" fill="#101010"/>
<path d="M238.465 7.56001C237.441 7.56001 236.673 7.27201 236.161 6.696C235.649 6.12 235.393 5.384 235.393 4.488C235.393 3.464 235.697 2.616 236.305 1.94401C236.945 1.27201 237.809 0.936005 238.897 0.936005C239.985 0.936005 240.785 1.224 241.297 1.8C241.809 2.37601 242.065 3.11201 242.065 4.00801C242.065 5.096 241.745 5.96 241.105 6.60001C240.497 7.24001 239.633 7.56001 238.513 7.56001H238.465ZM236.545 16.056L232.897 15.192V12.648L240.337 11.736H240.433L241.537 12.6V36.264L245.377 36.648V39H232.657V36.648L236.545 36.216V16.056Z" fill="#101010"/>
<path d="M274.753 24.744C274.753 27.464 274.193 29.96 273.073 32.232C271.953 34.472 270.353 36.248 268.273 37.56C266.193 38.872 263.761 39.528 260.977 39.528C260.209 39.528 259.377 39.464 258.481 39.336C257.585 39.208 256.865 39.048 256.321 38.856L256.465 42.888V47.736L261.457 48.264V50.616H248.065V48.264L251.521 47.736V16.056L248.017 15.192V12.6L254.833 11.736H254.929L255.937 12.6V15.432C256.897 14.376 258.081 13.48 259.489 12.744C260.929 12.008 262.529 11.64 264.289 11.64C266.177 11.64 267.905 12.104 269.473 13.032C271.073 13.96 272.353 15.4 273.313 17.352C274.273 19.304 274.753 21.768 274.753 24.744ZM262.321 15C261.105 15 259.969 15.256 258.913 15.768C257.857 16.28 257.041 16.84 256.465 17.448V35.544C256.689 35.928 257.249 36.28 258.145 36.6C259.073 36.888 260.081 37.032 261.169 37.032C263.633 37.032 265.617 36.056 267.121 34.104C268.657 32.152 269.425 29.208 269.425 25.272C269.425 21.816 268.753 19.24 267.409 17.544C266.097 15.848 264.401 15 262.321 15Z" fill="#101010"/>
<path d="M304.894 24.744C304.894 27.464 304.334 29.96 303.214 32.232C302.094 34.472 300.494 36.248 298.414 37.56C296.334 38.872 293.902 39.528 291.118 39.528C290.35 39.528 289.518 39.464 288.622 39.336C287.726 39.208 287.006 39.048 286.462 38.856L286.606 42.888V47.736L291.598 48.264V50.616H278.206V48.264L281.662 47.736V16.056L278.158 15.192V12.6L284.974 11.736H285.07L286.078 12.6V15.432C287.038 14.376 288.222 13.48 289.63 12.744C291.07 12.008 292.67 11.64 294.43 11.64C296.318 11.64 298.046 12.104 299.614 13.032C301.214 13.96 302.494 15.4 303.454 17.352C304.414 19.304 304.894 21.768 304.894 24.744ZM292.462 15C291.246 15 290.11 15.256 289.054 15.768C287.998 16.28 287.182 16.84 286.606 17.448V35.544C286.83 35.928 287.39 36.28 288.286 36.6C289.214 36.888 290.222 37.032 291.31 37.032C293.774 37.032 295.758 36.056 297.262 34.104C298.798 32.152 299.566 29.208 299.566 25.272C299.566 21.816 298.894 19.24 297.55 17.544C296.238 15.848 294.542 15 292.462 15Z" fill="#101010"/>
</svg>
